<svg width="39" height="55" viewBox="0 0 39 55" fill="none" xmlns="http://www.w3.org/2000/svg">
<g filter="url(#filter0_d_58_193)">
<circle cx="18.5" cy="9.5" r="9.5" fill="#8D7B31"/>
<circle cx="18.5" cy="9.5" r="9" stroke="black"/>
</g>
<g filter="url(#filter1_d_58_193)">
<mask id="path-3-inside-1_58_193" fill="white">
<path d="M35 37C35 32.2261 33.367 27.6477 30.4602 24.2721C27.5533 20.8964 23.6109 19 19.5 19C15.3891 19 11.4467 20.8964 8.53985 24.2721C5.63303 27.6477 4 32.2261 4 37L19.5 37H35Z"/>
</mask>
<path d="M35 37C35 32.2261 33.367 27.6477 30.4602 24.2721C27.5533 20.8964 23.6109 19 19.5 19C15.3891 19 11.4467 20.8964 8.53985 24.2721C5.63303 27.6477 4 32.2261 4 37L19.5 37H35Z" fill="#8D7B31"/>
<path d="M35 37C35 32.2261 33.367 27.6477 30.4602 24.2721C27.5533 20.8964 23.6109 19 19.5 19C15.3891 19 11.4467 20.8964 8.53985 24.2721C5.63303 27.6477 4 32.2261 4 37L19.5 37H35Z" stroke="black" stroke-width="2" mask="url(#path-3-inside-1_58_193)"/>
</g>
<defs>
<filter id="filter0_d_58_193" x="5" y="0" width="27" height="27" filterUnits="userSpaceOnUse" color-interpolation-filters="sRGB">
<feFlood flood-opacity="0" result="BackgroundImageFix"/>
<feColorMatrix in="SourceAlpha" type="matrix" values="0 0 0 0 0 0 0 0 0 0 0 0 0 0 0 0 0 0 127 0" result="hardAlpha"/>
<feOffset dy="4"/>
<feGaussianBlur stdDeviation="2"/>
<feComposite in2="hardAlpha" operator="out"/>
<feColorMatrix type="matrix" values="0 0 0 0 0 0 0 0 0 0 0 0 0 0 0 0 0 0 0.25 0"/>
<feBlend mode="normal" in2="BackgroundImageFix" result="effect1_dropShadow_58_193"/>
<feBlend mode="normal" in="SourceGraphic" in2="effect1_dropShadow_58_193" result="shape"/>
</filter>
<filter id="filter1_d_58_193" x="0" y="19" width="39" height="26" filterUnits="userSpaceOnUse" color-interpolation-filters="sRGB">
<feFlood flood-opacity="0" result="BackgroundImageFix"/>
<feColorMatrix in="SourceAlpha" type="matrix" values="0 0 0 0 0 0 0 0 0 0 0 0 0 0 0 0 0 0 127 0" result="hardAlpha"/>
<feOffset dy="4"/>
<feGaussianBlur stdDeviation="2"/>
<feComposite in2="hardAlpha" operator="out"/>
<feColorMatrix type="matrix" values="0 0 0 0 0 0 0 0 0 0 0 0 0 0 0 0 0 0 0.25 0"/>
<feBlend mode="normal" in2="BackgroundImageFix" result="effect1_dropShadow_58_193"/>
<feBlend mode="normal" in="SourceGraphic" in2="effect1_dropShadow_58_193" result="shape"/>
</filter>
</defs>
</svg>
