<svg width="164" height="55" viewBox="0 0 164 55" fill="none" xmlns="http://www.w3.org/2000/svg">
<g filter="url(#filter0_d_117_199)">
<circle cx="18.5" cy="11.5" r="9.5" fill="#8D7B31"/>
<circle cx="18.5" cy="11.5" r="9" stroke="black"/>
</g>
<g filter="url(#filter1_d_117_199)">
<mask id="path-3-inside-1_117_199" fill="white">
<path d="M35 39C35 34.2261 33.367 29.6477 30.4602 26.2721C27.5533 22.8964 23.6109 21 19.5 21C15.3891 21 11.4467 22.8964 8.53985 26.2721C5.63303 29.6477 4 34.2261 4 39L19.5 39H35Z"/>
</mask>
<path d="M35 39C35 34.2261 33.367 29.6477 30.4602 26.2721C27.5533 22.8964 23.6109 21 19.5 21C15.3891 21 11.4467 22.8964 8.53985 26.2721C5.63303 29.6477 4 34.2261 4 39L19.5 39H35Z" fill="#8D7B31"/>
<path d="M35 39C35 34.2261 33.367 29.6477 30.4602 26.2721C27.5533 22.8964 23.6109 21 19.5 21C15.3891 21 11.4467 22.8964 8.53985 26.2721C5.63303 29.6477 4 34.2261 4 39L19.5 39H35Z" stroke="black" stroke-width="2" mask="url(#path-3-inside-1_117_199)"/>
</g>
<g filter="url(#filter2_d_117_199)">
<path d="M51.7 33V19.16H53.24V33H51.7ZM57.8619 33H56.3619V23H57.8419V23.7C58.9219 23.1 59.9552 22.8 60.9419 22.8C62.2752 22.8 63.1685 23.16 63.6219 23.88C64.0885 24.6 64.3219 25.88 64.3219 27.72V33H62.8419V27.76C62.8419 26.3733 62.7019 25.4267 62.4219 24.92C62.1552 24.4 61.5752 24.14 60.6819 24.14C60.2552 24.14 59.8019 24.2067 59.3219 24.34C58.8552 24.46 58.4952 24.58 58.2419 24.7L57.8619 24.88V33ZM67.1041 33V23H68.6041V33H67.1041ZM67.1041 20.74V19H68.6041V20.74H67.1041ZM75.2191 22.8C75.6591 22.8 76.4057 22.88 77.4591 23.04L77.9391 23.1L77.8791 24.32C76.8124 24.2 76.0257 24.14 75.5191 24.14C74.3857 24.14 73.6124 24.4133 73.1991 24.96C72.7991 25.4933 72.5991 26.4933 72.5991 27.96C72.5991 29.4133 72.7857 30.4267 73.1591 31C73.5457 31.5733 74.3391 31.86 75.5391 31.86L77.8991 31.68L77.9591 32.92C76.7191 33.1067 75.7924 33.2 75.1791 33.2C73.6191 33.2 72.5391 32.8 71.9391 32C71.3524 31.2 71.0591 29.8533 71.0591 27.96C71.0591 26.0533 71.3791 24.72 72.0191 23.96C72.6591 23.1867 73.7257 22.8 75.2191 22.8ZM80.19 33V23H81.69V33H80.19ZM80.19 20.74V19H81.69V20.74H80.19ZM91.625 26.02V31.14C91.665 31.6333 92.0517 31.9267 92.785 32.02L92.725 33.2C91.6717 33.2 90.8783 32.9333 90.345 32.4C89.145 32.9333 87.945 33.2 86.745 33.2C85.825 33.2 85.125 32.94 84.645 32.42C84.165 31.9 83.925 31.1533 83.925 30.18C83.925 29.2067 84.1717 28.4933 84.665 28.04C85.1583 27.5733 85.9317 27.2867 86.985 27.18L90.125 26.88V26.02C90.125 25.34 89.9783 24.8533 89.685 24.56C89.3917 24.2667 88.9917 24.12 88.485 24.12C87.4183 24.12 86.3117 24.1867 85.165 24.32L84.545 24.38L84.485 23.24C85.9517 22.9467 87.2517 22.8 88.385 22.8C89.5183 22.8 90.3383 23.06 90.845 23.58C91.365 24.1 91.625 24.9133 91.625 26.02ZM85.465 30.1C85.465 31.3267 85.9717 31.94 86.985 31.94C87.8917 31.94 88.785 31.7867 89.665 31.48L90.125 31.32V28.02L87.165 28.3C86.565 28.3533 86.1317 28.5267 85.865 28.82C85.5983 29.1133 85.465 29.54 85.465 30.1ZM94.5845 33V23H96.0645V24.36C97.2245 23.56 98.4445 23.0333 99.7245 22.78V24.3C99.1645 24.4067 98.5779 24.5733 97.9645 24.8C97.3645 25.0267 96.9045 25.2267 96.5845 25.4L96.0845 25.66V33H94.5845ZM109.973 20.3C107.973 20.3 106.973 21.0533 106.973 22.56C106.973 23.4 107.2 23.98 107.653 24.3C108.12 24.6067 109.053 24.92 110.453 25.24C111.866 25.5467 112.866 25.9533 113.453 26.46C114.04 26.9533 114.333 27.7733 114.333 28.92C114.333 31.76 112.86 33.18 109.913 33.18C108.94 33.18 107.72 33.0667 106.253 32.84L105.533 32.74L105.693 31.46C107.506 31.7 108.886 31.82 109.833 31.82C111.806 31.82 112.793 30.8933 112.793 29.04C112.793 28.2933 112.573 27.76 112.133 27.44C111.706 27.1067 110.9 26.8267 109.713 26.6C108.153 26.2667 107.046 25.84 106.393 25.32C105.74 24.7867 105.413 23.9 105.413 22.66C105.413 20.18 106.9 18.94 109.873 18.94C110.846 18.94 112.013 19.04 113.373 19.24L114.053 19.34L113.913 20.64C112.06 20.4133 110.746 20.3 109.973 20.3ZM123.533 31.76L124.113 31.7L124.153 32.88C122.633 33.0933 121.333 33.2 120.253 33.2C118.813 33.2 117.793 32.7867 117.193 31.96C116.593 31.12 116.293 29.82 116.293 28.06C116.293 24.5533 117.686 22.8 120.473 22.8C121.82 22.8 122.826 23.18 123.493 23.94C124.16 24.6867 124.493 25.8667 124.493 27.48L124.413 28.62H117.813C117.813 29.7267 118.013 30.5467 118.413 31.08C118.813 31.6133 119.506 31.88 120.493 31.88C121.493 31.88 122.506 31.84 123.533 31.76ZM122.993 27.42C122.993 26.1933 122.793 25.3267 122.393 24.82C122.006 24.3133 121.366 24.06 120.473 24.06C119.593 24.06 118.926 24.3267 118.473 24.86C118.033 25.3933 117.806 26.2467 117.793 27.42H122.993ZM129.971 24.14C128.517 24.14 127.791 24.6467 127.791 25.66C127.791 26.1267 127.957 26.46 128.291 26.66C128.624 26.8467 129.384 27.0467 130.571 27.26C131.757 27.46 132.597 27.7467 133.091 28.12C133.584 28.4933 133.831 29.1933 133.831 30.22C133.831 31.2467 133.497 32 132.831 32.48C132.177 32.96 131.217 33.2 129.951 33.2C129.124 33.2 128.151 33.1067 127.031 32.92L126.431 32.82L126.511 31.52C128.031 31.7467 129.177 31.86 129.951 31.86C130.724 31.86 131.311 31.74 131.711 31.5C132.124 31.2467 132.331 30.8333 132.331 30.26C132.331 29.6733 132.157 29.28 131.811 29.08C131.464 28.8667 130.704 28.6667 129.531 28.48C128.357 28.2933 127.524 28.02 127.031 27.66C126.537 27.3 126.291 26.6333 126.291 25.66C126.291 24.6867 126.631 23.9667 127.311 23.5C128.004 23.0333 128.864 22.8 129.891 22.8C130.704 22.8 131.724 22.8933 132.951 23.08L133.511 23.18L133.471 24.46C131.991 24.2467 130.824 24.14 129.971 24.14ZM136.128 33V23H137.627V33H136.128ZM136.128 20.74V19H137.627V20.74H136.128ZM144.342 22.8C145.903 22.8 147.003 23.2067 147.643 24.02C148.296 24.8333 148.623 26.1533 148.623 27.98C148.623 29.8067 148.316 31.1333 147.703 31.96C147.089 32.7867 145.969 33.2 144.342 33.2C142.716 33.2 141.596 32.7867 140.983 31.96C140.369 31.1333 140.063 29.8067 140.063 27.98C140.063 26.1533 140.389 24.8333 141.043 24.02C141.696 23.2067 142.796 22.8 144.342 22.8ZM144.342 31.9C145.476 31.9 146.216 31.6133 146.563 31.04C146.909 30.4533 147.083 29.4267 147.083 27.96C147.083 26.4933 146.889 25.4867 146.503 24.94C146.116 24.38 145.396 24.1 144.342 24.1C143.303 24.1 142.583 24.38 142.183 24.94C141.796 25.4867 141.603 26.4933 141.603 27.96C141.603 29.4133 141.776 30.4333 142.123 31.02C142.483 31.6067 143.223 31.9 144.342 31.9ZM142.143 20.16L146.463 18.2L146.983 19.48L142.563 21.18L142.143 20.16ZM152.569 33H151.069V23H152.549V23.7C153.629 23.1 154.662 22.8 155.649 22.8C156.982 22.8 157.876 23.16 158.329 23.88C158.796 24.6 159.029 25.88 159.029 27.72V33H157.549V27.76C157.549 26.3733 157.409 25.4267 157.129 24.92C156.862 24.4 156.282 24.14 155.389 24.14C154.962 24.14 154.509 24.2067 154.029 24.34C153.562 24.46 153.202 24.58 152.949 24.7L152.569 24.88V33Z" fill="#6A6A6A"/>
</g>
<defs>
<filter id="filter0_d_117_199" x="5" y="2" width="27" height="27" filterUnits="userSpaceOnUse" color-interpolation-filters="sRGB">
<feFlood flood-opacity="0" result="BackgroundImageFix"/>
<feColorMatrix in="SourceAlpha" type="matrix" values="0 0 0 0 0 0 0 0 0 0 0 0 0 0 0 0 0 0 127 0" result="hardAlpha"/>
<feOffset dy="4"/>
<feGaussianBlur stdDeviation="2"/>
<feComposite in2="hardAlpha" operator="out"/>
<feColorMatrix type="matrix" values="0 0 0 0 0 0 0 0 0 0 0 0 0 0 0 0 0 0 0.25 0"/>
<feBlend mode="normal" in2="BackgroundImageFix" result="effect1_dropShadow_117_199"/>
<feBlend mode="normal" in="SourceGraphic" in2="effect1_dropShadow_117_199" result="shape"/>
</filter>
<filter id="filter1_d_117_199" x="0" y="21" width="39" height="26" filterUnits="userSpaceOnUse" color-interpolation-filters="sRGB">
<feFlood flood-opacity="0" result="BackgroundImageFix"/>
<feColorMatrix in="SourceAlpha" type="matrix" values="0 0 0 0 0 0 0 0 0 0 0 0 0 0 0 0 0 0 127 0" result="hardAlpha"/>
<feOffset dy="4"/>
<feGaussianBlur stdDeviation="2"/>
<feComposite in2="hardAlpha" operator="out"/>
<feColorMatrix type="matrix" values="0 0 0 0 0 0 0 0 0 0 0 0 0 0 0 0 0 0 0.25 0"/>
<feBlend mode="normal" in2="BackgroundImageFix" result="effect1_dropShadow_117_199"/>
<feBlend mode="normal" in="SourceGraphic" in2="effect1_dropShadow_117_199" result="shape"/>
</filter>
<filter id="filter2_d_117_199" x="47.6992" y="18.2" width="115.33" height="23" filterUnits="userSpaceOnUse" color-interpolation-filters="sRGB">
<feFlood flood-opacity="0" result="BackgroundImageFix"/>
<feColorMatrix in="SourceAlpha" type="matrix" values="0 0 0 0 0 0 0 0 0 0 0 0 0 0 0 0 0 0 127 0" result="hardAlpha"/>
<feOffset dy="4"/>
<feGaussianBlur stdDeviation="2"/>
<feComposite in2="hardAlpha" operator="out"/>
<feColorMatrix type="matrix" values="0 0 0 0 0 0 0 0 0 0 0 0 0 0 0 0 0 0 0.25 0"/>
<feBlend mode="normal" in2="BackgroundImageFix" result="effect1_dropShadow_117_199"/>
<feBlend mode="normal" in="SourceGraphic" in2="effect1_dropShadow_117_199" result="shape"/>
</filter>
</defs>
</svg>
